<svg id="visual" viewBox="0 0 960 540" width="960" height="540" xmlns="http://www.w3.org/2000/svg" xmlns:xlink="http://www.w3.org/1999/xlink" version="1.1"><rect x="0" y="0" width="960" height="540" fill="#161616"></rect><path d="M0 260L20 279.5C40 299 80 338 120 347.7C160 357.3 200 337.7 240 344.5C280 351.3 320 384.7 360 371C400 357.3 440 296.7 480 282C520 267.3 560 298.7 600 310.3C640 322 680 314 720 314.8C760 315.7 800 325.3 840 327.7C880 330 920 325 940 322.5L960 320L960 541L940 541C920 541 880 541 840 541C800 541 760 541 720 541C680 541 640 541 600 541C560 541 520 541 480 541C440 541 400 541 360 541C320 541 280 541 240 541C200 541 160 541 120 541C80 541 40 541 20 541L0 541Z" fill="#3a0ca3"></path><path d="M0 401L20 381.8C40 362.7 80 324.3 120 314.3C160 304.3 200 322.7 240 332.2C280 341.7 320 342.3 360 355.7C400 369 440 395 480 387.7C520 380.3 560 339.7 600 319.8C640 300 680 301 720 314.5C760 328 800 354 840 377.8C880 401.7 920 423.3 940 434.2L960 445L960 541L940 541C920 541 880 541 840 541C800 541 760 541 720 541C680 541 640 541 600 541C560 541 520 541 480 541C440 541 400 541 360 541C320 541 280 541 240 541C200 541 160 541 120 541C80 541 40 541 20 541L0 541Z" fill="#4a0ca8"></path><path d="M0 413L20 413.3C40 413.7 80 414.3 120 422.3C160 430.3 200 445.7 240 439.5C280 433.3 320 405.7 360 383.3C400 361 440 344 480 350.2C520 356.3 560 385.7 600 391C640 396.3 680 377.7 720 371.7C760 365.7 800 372.3 840 388.3C880 404.3 920 429.7 940 442.3L960 455L960 541L940 541C920 541 880 541 840 541C800 541 760 541 720 541C680 541 640 541 600 541C560 541 520 541 480 541C440 541 400 541 360 541C320 541 280 541 240 541C200 541 160 541 120 541C80 541 40 541 20 541L0 541Z" fill="#580bad"></path><path d="M0 404L20 413.2C40 422.3 80 440.7 120 451.8C160 463 200 467 240 470.5C280 474 320 477 360 474.2C400 471.3 440 462.7 480 456.8C520 451 560 448 600 444.8C640 441.7 680 438.3 720 440.3C760 442.3 800 449.7 840 457.8C880 466 920 475 940 479.5L960 484L960 541L940 541C920 541 880 541 840 541C800 541 760 541 720 541C680 541 640 541 600 541C560 541 520 541 480 541C440 541 400 541 360 541C320 541 280 541 240 541C200 541 160 541 120 541C80 541 40 541 20 541L0 541Z" fill="#650ab2"></path><path d="M0 434L20 441C40 448 80 462 120 461.8C160 461.7 200 447.3 240 440.3C280 433.3 320 433.7 360 435.5C400 437.3 440 440.7 480 445.7C520 450.7 560 457.3 600 466.7C640 476 680 488 720 494.2C760 500.3 800 500.7 840 500.3C880 500 920 499 940 498.5L960 498L960 541L940 541C920 541 880 541 840 541C800 541 760 541 720 541C680 541 640 541 600 541C560 541 520 541 480 541C440 541 400 541 360 541C320 541 280 541 240 541C200 541 160 541 120 541C80 541 40 541 20 541L0 541Z" fill="#7209b7"></path></svg>