<svg id="visual" viewBox="0 0 960 540" width="960" height="540" xmlns="http://www.w3.org/2000/svg" xmlns:xlink="http://www.w3.org/1999/xlink" version="1.1"><rect x="0" y="0" width="960" height="540" fill="#161616"></rect><path d="M0 208L20 193.3C40 178.7 80 149.3 120 142.2C160 135 200 150 240 144.8C280 139.7 320 114.3 360 124.5C400 134.7 440 180.3 480 191.5C520 202.7 560 179.3 600 170.5C640 161.7 680 167.3 720 166.7C760 166 800 159 840 157.3C880 155.7 920 159.3 940 161.2L960 163L960 0L940 0C920 0 880 0 840 0C800 0 760 0 720 0C680 0 640 0 600 0C560 0 520 0 480 0C440 0 400 0 360 0C320 0 280 0 240 0C200 0 160 0 120 0C80 0 40 0 20 0L0 0Z" fill="#3a0ca3"></path><path d="M0 103L20 117.3C40 131.7 80 160.3 120 167.7C160 175 200 161 240 153.8C280 146.7 320 146.3 360 136.3C400 126.3 440 106.7 480 112.2C520 117.7 560 148.3 600 163.3C640 178.3 680 177.7 720 167.5C760 157.3 800 137.7 840 119.8C880 102 920 86 940 78L960 70L960 0L940 0C920 0 880 0 840 0C800 0 760 0 720 0C680 0 640 0 600 0C560 0 520 0 480 0C440 0 400 0 360 0C320 0 280 0 240 0C200 0 160 0 120 0C80 0 40 0 20 0L0 0Z" fill="#4a0ca8"></path><path d="M0 94L20 93.7C40 93.3 80 92.7 120 86.5C160 80.3 200 68.7 240 73.3C280 78 320 99 360 115.8C400 132.7 440 145.3 480 140.7C520 136 560 114 600 110C640 106 680 120 720 124.5C760 129 800 124 840 112C880 100 920 81 940 71.5L960 62L960 0L940 0C920 0 880 0 840 0C800 0 760 0 720 0C680 0 640 0 600 0C560 0 520 0 480 0C440 0 400 0 360 0C320 0 280 0 240 0C200 0 160 0 120 0C80 0 40 0 20 0L0 0Z" fill="#580bad"></path><path d="M0 100L20 93.2C40 86.3 80 72.7 120 64.3C160 56 200 53 240 50.3C280 47.7 320 45.3 360 47.5C400 49.7 440 56.3 480 60.8C520 65.3 560 67.7 600 70C640 72.3 680 74.7 720 73C760 71.3 800 65.7 840 59.5C880 53.3 920 46.7 940 43.3L960 40L960 0L940 0C920 0 880 0 840 0C800 0 760 0 720 0C680 0 640 0 600 0C560 0 520 0 480 0C440 0 400 0 360 0C320 0 280 0 240 0C200 0 160 0 120 0C80 0 40 0 20 0L0 0Z" fill="#650ab2"></path><path d="M0 78L20 72.7C40 67.3 80 56.7 120 56.7C160 56.7 200 67.3 240 72.7C280 78 320 78 360 76.7C400 75.3 440 72.7 480 68.8C520 65 560 60 600 53C640 46 680 37 720 32.5C760 28 800 28 840 28.2C880 28.3 920 28.7 940 28.8L960 29L960 0L940 0C920 0 880 0 840 0C800 0 760 0 720 0C680 0 640 0 600 0C560 0 520 0 480 0C440 0 400 0 360 0C320 0 280 0 240 0C200 0 160 0 120 0C80 0 40 0 20 0L0 0Z" fill="#7209b7"></path></svg>